<svg version="1.1" viewBox="0.0 0.0 556.1076115485564 188.75853018372703" fill="none" stroke="none" stroke-linecap="square" stroke-miterlimit="10" xmlns:xlink="http://www.w3.org/1999/xlink" xmlns="http://www.w3.org/2000/svg"><clipPath id="p.0"><path d="m0 0l556.1076 0l0 188.75853l-556.1076 0l0 -188.75853z" clip-rule="nonzero"/></clipPath><g clip-path="url(#p.0)"><path fill="#000000" fill-opacity="0.0" d="m0 0l556.1076 0l0 188.75853l-556.1076 0z" fill-rule="evenodd"/><path fill="#80b0a4" d="m20.853647 45.862698l0 0c0 -13.614597 11.036812 -24.651411 24.651411 -24.651411l469.40582 0c6.537964 0 12.8081665 2.5971947 17.431213 7.22023c4.622986 4.6230373 7.220215 10.893221 7.220215 17.431181l0 98.60269c0 13.6145935 -11.036804 24.651398 -24.651428 24.651398l-469.40582 0c-13.614599 0 -24.651411 -11.036804 -24.651411 -24.651398z" fill-rule="evenodd"/><path stroke="#000000" stroke-width="8.0" stroke-linejoin="round" stroke-linecap="butt" d="m20.853647 45.862698l0 0c0 -13.614597 11.036812 -24.651411 24.651411 -24.651411l469.40582 0c6.537964 0 12.8081665 2.5971947 17.431213 7.22023c4.622986 4.6230373 7.220215 10.893221 7.220215 17.431181l0 98.60269c0 13.6145935 -11.036804 24.651398 -24.651428 24.651398l-469.40582 0c-13.614599 0 -24.651411 -11.036804 -24.651411 -24.651398z" fill-rule="evenodd"/><path fill="#000000" fill-opacity="0.0" d="m28.074482 42.802517l504.25198 0l0 116.34645l-504.25198 0z" fill-rule="evenodd"/><path fill="#eee1c6" d="m90.4069 128.60251l21.3125 -56.0l9.84375 0l21.390617 56.0l-11.15625 0l-4.4374924 -11.84375l-21.40625 0l-4.359375 11.84375l-11.1875 0zm18.90625 -21.3125l14.609375 0l-5.609375 -15.0q-0.265625 -0.6875 -0.59375 -1.53125q-0.3125 -0.84375 -0.59375 -1.703125q-0.28125 -0.859375 -0.484375 -1.5q-0.203125 0.640625 -0.484375 1.5q-0.28125 0.859375 -0.609375 1.703125q-0.3125 0.84375 -0.59375 1.53125l-5.640625 15.0zm97.64428 22.265625q-2.796875 0 -4.828125 -1.0q-2.015625 -1.0 -3.734375 -3.234375l0 3.28125l-10.0 0l0 -53.234375l10.0 -4.53125l0 20.078125q1.5625 -2.0 3.859375 -3.078125q2.3125 -1.078125 5.03125 -1.078125q5.078125 0 8.875 2.6875q3.796875 2.671875 5.9375 7.5q2.140625 4.8125 2.140625 11.171875q0 10.125 -4.578125 15.78125q-4.578125 5.65625 -12.703125 5.65625zm-1.203125 -9.546875q4.09375 0 6.265625 -3.078125q2.1875 -3.09375 2.1875 -8.8125q0 -5.71875 -2.1875 -8.765625q-2.171875 -3.0625 -6.265625 -3.0625q-2.234375 0 -4.234375 0.984375q-2.0 0.96875 -3.125 2.609375l0 16.515625q1.25 1.765625 3.046875 2.6875q1.796875 0.921875 4.3125 0.921875zm85.28494 9.546875q-8.640625 0 -13.640625 -5.71875q-5.0 -5.71875 -5.0 -15.640625q0 -6.546875 2.28125 -11.359375q2.28125 -4.828125 6.453125 -7.453125q4.1875 -2.625 9.90625 -2.625q5.6875 0 9.84375 2.609375q4.15625 2.59375 6.390625 7.390625q2.25 4.796875 2.25 11.40625q0 6.640625 -2.21875 11.4375q-2.21875 4.796875 -6.390625 7.375q-4.15625 2.578125 -9.875 2.578125zm0 -9.546875q4.046875 0 6.28125 -3.125q2.234375 -3.125 2.234375 -8.71875q0 -5.609375 -2.265625 -8.734375q-2.25 -3.140625 -6.25 -3.140625q-4.03125 0 -6.3125 3.15625q-2.28125 3.15625 -2.28125 8.75q0 5.53125 2.28125 8.671875q2.28125 3.140625 6.3125 3.140625zm82.80429 9.546875q-6.84375 0 -10.609375 -4.25q-3.75 -4.265625 -3.75 -12.0625l0 -25.515625l10.0 0l0 22.390625q0 5.171875 1.75 7.53125q1.765625 2.359375 5.5625 2.359375q4.078125 0 6.015625 -2.375q1.953125 -2.390625 1.953125 -7.34375l0 -22.5625l9.953125 0l0 40.875l-9.953125 0l0 -3.84375q-1.890625 2.40625 -4.625 3.609375q-2.734375 1.1875 -6.296875 1.1875zm85.31305 0q-4.875 0 -7.3125 -2.671875q-2.4375 -2.6875 -2.4375 -8.0l0 -22.40625l-5.96875 0l0 -8.75l5.96875 0l0 -12.125l9.90625 -4.765625l0 16.890625l9.28125 0l0 8.75l-9.28125 0l0 20.609375q0 1.921875 0.78125 2.84375q0.78125 0.90625 2.46875 0.90625q2.953125 0 6.484375 -1.828125l-1.171875 8.71875q-1.828125 0.921875 -4.0 1.375q-2.15625 0.453125 -4.71875 0.453125z" fill-rule="nonzero"/></g></svg>