<svg version="1.1" viewBox="0.0 0.0 528.1286089238845 156.04724409448818" fill="none" stroke="none" stroke-linecap="square" stroke-miterlimit="10" xmlns:xlink="http://www.w3.org/1999/xlink" xmlns="http://www.w3.org/2000/svg"><clipPath id="p.0"><path d="m0 0l528.1286 0l0 156.04724l-528.1286 0l0 -156.04724z" clip-rule="nonzero"/></clipPath><g clip-path="url(#p.0)"><path fill="#000000" fill-opacity="0.0" d="m0 0l528.1286 0l0 156.04724l-528.1286 0z" fill-rule="evenodd"/><path fill="#d6742b" d="m4.70929 28.720966l0 0c0 -13.614599 11.036814 -24.651413 24.651413 -24.651413l469.40582 0c6.537964 0 12.808136 2.5971947 17.431152 7.2202315c4.623047 4.6230364 7.220276 10.893219 7.220276 17.431181l0 98.60269c0 13.6145935 -11.036804 24.651413 -24.651428 24.651413l-469.40582 0c-13.614599 0 -24.651413 -11.036819 -24.651413 -24.651413z" fill-rule="evenodd"/><path stroke="#000000" stroke-width="8.0" stroke-linejoin="round" stroke-linecap="butt" d="m4.70929 28.720966l0 0c0 -13.614599 11.036814 -24.651413 24.651413 -24.651413l469.40582 0c6.537964 0 12.808136 2.5971947 17.431152 7.2202315c4.623047 4.6230364 7.220276 10.893219 7.220276 17.431181l0 98.60269c0 13.6145935 -11.036804 24.651413 -24.651428 24.651413l-469.40582 0c-13.614599 0 -24.651413 -11.036819 -24.651413 -24.651413z" fill-rule="evenodd"/><path fill="#000000" fill-opacity="0.0" d="m11.930126 25.660784l504.25195 0l0 116.346466l-504.25195 0z" fill-rule="evenodd"/><path fill="#eee1c6" d="m60.529446 112.33578q-6.515625 0 -11.015625 -2.515625q-4.5 -2.515625 -7.25 -6.6875q-2.734375 -4.1875 -3.96875 -9.3125q-1.234375 -5.125 -1.234375 -10.359375q0 -4.953125 1.25 -10.046875q1.265625 -5.109375 4.046875 -9.40625q2.78125 -4.312496 7.25 -6.906246q4.484375 -2.59375 10.921875 -2.59375q5.328121 0 9.249996 1.78125q3.921875 1.765625 6.5 4.59375q2.578125 2.8125 3.9375 5.890621l-9.28125 4.328125q-1.359375 -2.078125 -2.796875 -3.578125q-1.4375 -1.5 -3.265625 -2.3125q-1.8124962 -0.828125 -4.343746 -0.828125q-3.59375 0 -6.03125 1.75q-2.4375 1.734375 -3.921875 4.578125q-1.484375 2.828125 -2.125 6.1875q-0.640625 3.359375 -0.640625 6.5625q0 3.40625 0.71875 6.765625q0.734375 3.359375 2.28125 6.125q1.5625 2.75 3.953125 4.40625q2.40625 1.65625 5.765625 1.65625q3.6093712 0 6.062496 -2.015625q2.46875 -2.015625 4.390625 -5.171875l9.46875 3.546875q-1.796875 3.890625 -4.515625 6.96875q-2.71875 3.078125 -6.515625 4.84375q-3.796875 1.75 -8.890621 1.75zm49.361187 -0.875l0 -40.875l10.0 0l0 4.390625q1.125 -2.359375 3.515625 -3.859375q2.40625 -1.5 5.0468826 -1.5q4.359375 0 7.359375 3.0l-1.390625 9.15625q-1.640625 -1.359375 -3.203125 -1.90625q-1.5625 -0.5625 -3.4375076 -0.5625q-2.484375 0 -4.25 1.15625q-1.75 1.15625 -2.703125 3.359375q-0.9375 2.203125 -0.9375 5.28125l0 22.359375l-10.0 0zm70.163704 0.953125q-5.875 0 -10.140625 -2.625q-4.25 -2.640625 -6.5625 -7.453125q-2.296875 -4.828125 -2.296875 -11.359375q0 -6.59375 2.34375 -11.390625q2.34375 -4.8125 6.59375 -7.390625q4.265625 -2.578125 10.0625 -2.578125q4.96875 0 9.0 2.078125q4.046875 2.078125 6.4375 6.390625q2.40625 4.296875 2.40625 10.9375q0 1.03125 -0.0625 2.53125q-0.0625 1.5 -0.21875 3.03125l-26.6875 0q0.171875 2.796875 1.3125 4.90625q1.140625 2.09375 3.140625 3.25q2.0 1.15625 4.71875 1.15625q2.921875 0 5.078125 -0.96875q2.15625 -0.984375 4.078125 -3.15625l5.765625 5.96875q-2.640625 3.0 -6.375 4.84375q-3.71875 1.828125 -8.59375 1.828125zm-9.078125 -25.640625l17.234375 0q-0.1875 -2.671875 -1.1875 -4.609375q-1.0 -1.9375 -2.8125 -2.96875q-1.796875 -1.046875 -4.359375 -1.046875q-3.515625 0 -6.0 2.15625q-2.46875 2.15625 -2.875 6.46875zm68.87244 25.640625q-6.671875 0 -10.578125 -3.609375q-3.890625 -3.625 -3.890625 -9.828125q0 -4.0 2.015625 -7.015625q2.015625 -3.015625 5.640625 -4.671875q3.625 -1.671875 8.453125 -1.671875q2.6875 0 5.1875 0.5q2.5 0.5 4.375 1.421875l0 -2.5625q0 -3.4375 -1.9375 -5.171875q-1.9375 -1.75 -5.703125 -1.75q-3.0 0 -6.15625 1.09375q-3.15625 1.078125 -6.40625 3.1875l-3.0 -7.875q3.53125 -2.3125 7.84375 -3.578125q4.328125 -1.265625 8.71875 -1.265625q8.25 0 12.32811 3.90625q4.078125 3.890625 4.078125 11.625l0 26.3125l-9.76561 0l0 -3.28125q-2.078125 2.078125 -4.9375 3.15625q-2.859375 1.078125 -6.265625 1.078125zm2.328125 -8.4375q2.484375 0 4.78125 -0.96875q2.296875 -0.984375 4.09375 -2.78125l0 -4.84375q-1.71875 -0.84375 -3.828125 -1.296875q-2.09375 -0.46875 -4.171875 -0.46875q-3.71875 0 -5.859375 1.421875q-2.140625 1.421875 -2.140625 3.9375q0 2.359375 1.875 3.6875q1.890625 1.3125 5.25 1.3125zm62.075546 8.4375q-4.875 0 -7.3125 -2.671875q-2.4375 -2.6875 -2.4375 -8.0l0 -22.40625l-5.96875 0l0 -8.75l5.96875 0l0 -12.124996l9.90625 -4.765625l0 16.890621l9.28125 0l0 8.75l-9.28125 0l0 20.609375q0 1.921875 0.78125 2.84375q0.78125 0.90625 2.46875 0.90625q2.953125 0 6.484375 -1.828125l-1.171875 8.71875q-1.828125 0.921875 -4.0 1.375q-2.15625 0.453125 -4.71875 0.453125zm55.962463 0q-8.640625 0 -13.640625 -5.71875q-5.0 -5.71875 -5.0 -15.640625q0 -6.546875 2.28125 -11.359375q2.28125 -4.828125 6.453125 -7.453125q4.1875 -2.625 9.90625 -2.625q5.6875 0 9.84375 2.609375q4.15625 2.59375 6.390625 7.390625q2.25 4.796875 2.25 11.40625q0 6.640625 -2.21875 11.4375q-2.21875 4.796875 -6.390625 7.375q-4.15625 2.578125 -9.875 2.578125zm0 -9.546875q4.046875 0 6.28125 -3.125q2.234375 -3.125 2.234375 -8.71875q0 -5.609375 -2.265625 -8.734375q-2.25 -3.140625 -6.25 -3.140625q-4.03125 0 -6.3125 3.15625q-2.28125 3.15625 -2.28125 8.75q0 5.53125 2.28125 8.671875q2.28125 3.140625 6.3125 3.140625zm48.83557 8.59375l0 -40.875l10.0 0l0 4.390625q1.125 -2.359375 3.515625 -3.859375q2.40625 -1.5 5.046875 -1.5q4.359375 0 7.359375 3.0l-1.390625 9.15625q-1.640625 -1.359375 -3.203125 -1.90625q-1.5625 -0.5625 -3.4375 -0.5625q-2.484375 0 -4.25 1.15625q-1.75 1.15625 -2.703125 3.359375q-0.9375 2.203125 -0.9375 5.28125l0 22.359375l-10.0 0zm66.67932 0.953125q-4.796875 0 -9.171875 -2.03125q-4.375 -2.046875 -6.9375 -5.484375l6.5625 -5.515625q2.03125 2.15625 4.703125 3.421875q2.6875 1.25 5.125 1.25q3.046875 0 4.6875 -1.015625q1.640625 -1.015625 1.640625 -2.859375q0 -1.203125 -0.78125 -2.140625q-0.78125 -0.9375 -2.75 -1.90625q-1.953125 -0.984375 -5.515625 -2.265625q-6.875 -2.53125 -9.765625 -5.46875q-2.875 -2.9375 -2.875 -7.453125q0 -5.046875 4.078125 -8.1875q4.09375 -3.140625 10.640625 -3.140625q4.484375 0 8.265625 1.6875q3.78125 1.671875 6.5 4.921875l-6.515625 5.390625q-3.609375 -3.640625 -8.40625 -3.640625q-2.4375 0 -3.921875 0.90625q-1.46875 0.890625 -1.46875 2.421875q0 1.46875 1.734375 2.640625q1.734375 1.15625 6.5 2.71875q4.71875 1.484375 7.65625 3.359375q2.9375 1.875 4.3125 4.359375q1.390625 2.484375 1.390625 5.71875q0 5.765625 -4.1875 9.046875q-4.171875 3.265625 -11.5 3.265625z" fill-rule="nonzero"/></g></svg>