<?xml version="1.0" standalone="no"?>
<!DOCTYPE svg PUBLIC "-//W3C//DTD SVG 20010904//EN"
 "http://www.w3.org/TR/2001/REC-SVG-20010904/DTD/svg10.dtd">
<svg version="1.0" xmlns="http://www.w3.org/2000/svg"
 width="1440.000000pt" height="960.000000pt" viewBox="0 0 1440.000000 960.000000"
 preserveAspectRatio="xMidYMid meet">

<g transform="translate(0.000000,960.000000) scale(0.100000,-0.100000)"
fill="#000000" stroke="none">
<path d="M1135 9590 c4 -6 11 -8 16 -5 14 9 11 15 -7 15 -8 0 -12 -5 -9 -10z"/>
<path d="M1173 9541 c-1 -44 2 -61 13 -65 12 -5 11 -9 -6 -26 -13 -13 -20 -33
-20 -56 0 -27 -5 -37 -20 -41 -11 -3 -17 -9 -14 -15 3 -5 -6 -20 -21 -34 -14
-13 -24 -28 -20 -33 3 -6 -10 -38 -28 -73 -19 -35 -37 -84 -41 -108 -4 -25
-18 -63 -31 -85 -51 -88 -59 -141 -57 -385 3 -257 4 -267 42 -450 21 -101 26
-152 23 -203 -7 -89 14 -145 70 -190 23 -19 50 -37 59 -40 9 -3 24 -21 34 -39
32 -63 84 -117 156 -158 91 -53 152 -63 196 -31 17 11 33 21 37 21 5 0 17 9
29 21 12 11 47 40 79 65 31 25 57 52 57 60 0 7 4 14 9 14 12 0 24 -19 46 -70
42 -101 112 -140 229 -129 19 2 88 66 117 109 8 13 23 23 31 23 9 0 14 6 11
12 -2 7 3 15 11 18 12 5 14 21 12 77 -2 39 -8 76 -15 83 -6 6 -11 24 -11 40 0
25 2 28 15 17 8 -7 15 -22 16 -34 0 -11 3 -15 6 -8 2 6 11 12 19 12 19 0 18 7
-7 47 -16 25 -27 33 -41 30 -17 -5 -18 -2 -12 26 12 53 13 77 3 83 -5 3 -9 -1
-10 -8 0 -7 -5 0 -11 15 -12 33 -5 45 17 27 10 -8 15 -9 15 -1 0 6 9 11 20 11
11 0 20 5 20 10 0 6 5 10 11 10 5 0 7 -5 4 -10 -3 -6 1 -13 9 -16 9 -4 16 -18
16 -34 0 -31 20 -53 41 -45 8 2 23 -2 33 -10 20 -15 20 -15 0 -30 -10 -8 -27
-12 -37 -9 -19 6 -41 -34 -27 -50 5 -5 2 -18 -5 -30 -16 -24 -9 -69 9 -63 6 2
17 18 25 35 8 18 21 32 28 32 7 0 13 7 13 15 0 8 -3 14 -7 13 -5 -2 -8 2 -8 7
0 6 3 9 8 7 4 -1 7 3 7 8 0 20 41 -10 51 -38 6 -15 16 -30 22 -34 9 -6 7 -11
-5 -19 -27 -15 -21 -54 13 -94 27 -31 30 -39 21 -59 -7 -17 -21 -25 -51 -29
-39 -5 -89 -37 -59 -37 8 -1 7 -5 -5 -15 -18 -13 -18 -14 2 -24 11 -6 29 -11
40 -11 12 0 21 -7 21 -15 0 -8 -4 -15 -10 -15 -16 0 -12 -57 5 -74 8 -8 15
-32 15 -55 0 -22 5 -43 10 -46 6 -3 10 -15 10 -26 0 -16 -7 -19 -40 -19 -41 0
-50 -9 -27 -29 9 -7 17 -7 24 0 5 5 18 7 27 3 14 -5 17 -14 12 -38 -4 -21 -3
-26 3 -16 18 27 25 -18 10 -63 -8 -23 -12 -50 -11 -59 5 -26 -34 -24 -41 2
-10 39 -33 12 -34 -40 l-1 -50 39 -6 c69 -11 78 -63 13 -74 -36 -6 -43 -37
-17 -77 10 -15 13 -24 6 -20 -6 4 -14 3 -18 -3 -3 -6 1 -13 9 -16 10 -4 16
-17 15 -33 l-1 -26 -7 25 c-6 22 -8 19 -15 -20 -8 -50 -27 -100 -38 -100 -5 0
-8 -11 -8 -25 0 -14 5 -25 10 -25 6 0 10 -4 10 -10 0 -5 -7 -10 -15 -10 -9 0
-18 -7 -21 -15 -9 -24 -24 -17 -24 10 0 28 -27 35 -36 10 -10 -25 4 -65 21
-59 18 7 19 -9 3 -35 -9 -15 -9 -25 0 -46 15 -32 15 -89 1 -154 -6 -28 -9 -53
-7 -56 2 -2 -7 -11 -19 -20 -17 -12 -21 -25 -21 -61 0 -40 2 -45 18 -41 21 5
37 -33 18 -44 -6 -4 -8 -11 -4 -17 10 -17 -5 -42 -25 -42 -12 0 -21 9 -25 25
-3 14 -10 25 -14 25 -16 0 -20 -33 -7 -49 21 -23 37 -78 37 -123 0 -32 -4 -40
-25 -48 -27 -10 -32 -29 -14 -47 12 -12 3 -89 -12 -99 -5 -3 -9 -12 -9 -21 0
-9 -7 -21 -17 -28 -9 -7 -17 -23 -19 -36 -1 -13 -3 -27 -3 -31 -1 -5 -8 -8
-17 -8 -11 0 -14 -6 -8 -22 4 -13 7 -31 6 -40 0 -10 6 -18 14 -18 16 0 16 -6
5 -35 -5 -11 -4 -31 1 -44 7 -19 5 -22 -7 -17 -8 3 -15 1 -15 -3 0 -5 6 -11
13 -14 8 -3 20 -27 27 -53 13 -45 12 -48 -9 -65 -13 -11 -28 -16 -33 -13 -7 4
-8 -5 -3 -25 4 -20 3 -31 -4 -31 -6 0 -11 -4 -11 -10 0 -5 11 -10 25 -10 31 0
32 -15 4 -31 -18 -9 -24 -8 -31 5 -9 16 -38 22 -38 8 0 -4 6 -14 12 -20 7 -7
14 -27 15 -45 1 -18 5 -47 8 -64 6 -29 5 -33 -14 -33 -14 0 -21 -6 -21 -20 0
-11 5 -20 10 -20 20 0 10 -21 -15 -30 -24 -9 -26 -25 -16 -115 1 -5 6 -2 12 8
21 36 54 12 42 -32 -6 -25 -13 -26 -39 -6 -30 22 -42 18 -59 -21 -20 -49 -19
-70 5 -94 22 -22 25 -42 10 -71 -11 -19 -50 -27 -50 -10 0 5 -9 11 -20 14 -11
3 -20 12 -20 21 0 24 -13 19 -27 -9 -10 -22 -8 -27 13 -44 l23 -18 -24 -29
c-14 -16 -25 -36 -25 -44 0 -9 -5 -21 -12 -28 -9 -9 -9 -15 0 -24 7 -7 12 -9
12 -5 0 4 9 3 20 -3 11 -6 17 -16 14 -25 -7 -17 -44 -21 -44 -5 0 16 -37 12
-44 -5 -3 -8 -12 -15 -20 -15 -21 0 -26 -23 -16 -91 9 -65 22 -83 55 -75 11 3
32 8 48 12 25 6 27 4 27 -22 0 -38 -9 -50 -43 -56 -19 -4 -30 -1 -34 8 -3 8
-14 14 -24 14 -17 0 -18 -5 -13 -40 6 -35 4 -40 -12 -40 -11 0 -25 -9 -32 -20
-7 -11 -19 -20 -27 -20 -8 0 -15 -3 -15 -7 0 -11 -50 -33 -73 -33 -17 0 -19
-5 -14 -40 3 -23 1 -40 -5 -40 -5 0 -6 -4 -3 -10 3 -5 17 -10 31 -10 24 0 30
-13 18 -44 -7 -18 -34 -22 -34 -6 0 6 -10 8 -22 5 -31 -7 -62 18 -55 45 4 15
0 20 -15 20 -10 0 -16 -5 -13 -10 4 -6 -3 -26 -15 -45 -20 -32 -20 -35 -4 -60
16 -25 16 -25 -10 -25 -21 0 -26 -5 -26 -25 0 -13 -8 -29 -18 -34 -10 -5 -24
-21 -31 -35 -12 -21 -12 -28 0 -42 12 -15 12 -18 -1 -22 -8 -3 -28 -19 -44
-36 l-29 -31 7 30 c15 58 13 107 -3 113 -8 3 -17 0 -19 -6 -2 -7 -12 -12 -22
-12 -11 0 -17 -7 -16 -17 1 -13 -8 -19 -31 -21 -33 -3 -45 -25 -20 -36 6 -3 3
-4 -9 -1 -12 3 -30 -3 -43 -15 -19 -16 -22 -26 -17 -55 7 -35 6 -35 -49 -60
-58 -27 -58 -27 -39 -92 6 -21 3 -23 -27 -24 -53 -2 -60 1 -86 32 -28 32 -55
39 -52 12 1 -10 0 -25 -4 -33 -22 -61 -27 -84 -16 -91 6 -4 -17 -10 -52 -13
-35 -4 -73 -11 -84 -15 -59 -24 -114 -55 -110 -61 5 -8 -62 -70 -76 -70 -5 0
-9 -5 -9 -10 0 -6 8 -10 18 -8 11 2 18 -4 20 -18 2 -16 -4 -24 -27 -32 -16 -6
-32 -20 -36 -31 -3 -12 -14 -21 -23 -21 -15 -1 -14 -3 2 -15 19 -15 19 -15 1
-29 -12 -8 -16 -19 -12 -31 6 -13 3 -16 -10 -10 -33 12 -38 10 -38 -20 -1 -25
-5 -30 -29 -33 -23 -3 -27 0 -23 12 14 35 -28 26 -77 -17 -12 -10 -22 -14 -24
-9 -2 8 -89 0 -95 -9 -36 -61 -37 -94 -3 -103 33 -8 56 2 56 25 0 14 7 19 26
19 35 0 53 -21 47 -56 -4 -23 -2 -26 6 -14 10 13 12 13 21 0 12 -19 8 -35 -11
-36 -8 0 -26 -4 -41 -8 -16 -5 -39 -5 -53 -2 -21 5 -23 9 -15 31 8 22 7 25
-14 25 -13 0 -26 -7 -30 -15 -6 -17 -53 -20 -76 -5 -12 8 -13 12 -2 19 23 14
9 43 -36 78 -24 18 -48 33 -53 33 -12 0 -12 -27 1 -32 6 -2 6 -18 0 -43 -6
-24 -10 -595 -10 -1397 l0 -1358 2636 0 c2452 0 2635 1 2623 17 -8 9 -28 22
-46 29 -36 15 -38 41 -8 87 14 23 15 30 4 43 -9 11 -10 17 -1 23 6 4 13 22 14
41 3 31 0 35 -22 38 -41 6 -60 30 -60 79 0 23 -4 43 -10 43 -19 0 -10 28 10
33 23 6 27 27 5 27 -17 0 -50 64 -40 80 4 6 0 19 -8 28 -10 12 -13 37 -12 82
1 36 -3 71 -8 78 -6 8 -12 45 -13 82 -1 38 -7 78 -13 89 -17 30 -3 131 18 132
10 0 12 2 4 6 -7 2 -13 13 -13 23 0 10 -11 27 -25 38 -27 22 -32 50 -12 71 10
11 10 14 0 18 -7 3 -13 15 -13 27 0 12 -4 26 -10 32 -6 6 -6 30 0 69 9 57 8
61 -16 86 -22 23 -25 34 -20 63 4 19 2 37 -3 41 -7 4 -6 15 2 32 9 21 9 27 -1
31 -16 5 -47 66 -56 109 -4 17 -14 37 -22 44 -10 8 -12 22 -8 44 6 34 -8 64
-53 114 -13 13 -23 29 -23 35 0 6 -6 22 -13 36 -8 15 -11 34 -6 45 15 39 8 68
-27 116 -27 38 -42 49 -63 49 -31 0 -51 16 -51 42 0 10 -13 43 -30 73 -29 53
-39 108 -22 119 26 16 62 13 79 -6 10 -12 30 -29 46 -38 30 -18 137 -156 137
-176 0 -14 27 -26 34 -15 9 13 -10 67 -52 150 -40 78 -56 103 -101 149 -13 14
-26 42 -28 62 -4 27 -13 42 -33 54 -36 21 -50 20 -50 -2 0 -10 -7 -28 -16 -41
l-16 -22 -24 22 c-17 16 -24 33 -24 59 0 67 -17 99 -58 106 -21 4 -44 10 -53
15 -21 11 -32 0 -18 -17 13 -16 3 -34 -19 -34 -36 0 -43 -14 -26 -48 8 -18 24
-38 34 -45 26 -18 50 -66 50 -101 0 -28 56 -156 90 -206 17 -25 63 -227 55
-240 -7 -11 25 -100 36 -100 5 0 4 -9 -3 -19 -10 -16 -9 -23 6 -40 13 -14 16
-26 10 -43 -4 -13 -6 -27 -5 -33 2 -5 5 -39 6 -75 2 -43 9 -77 23 -100 25 -44
35 -87 22 -95 -6 -4 -6 -15 1 -32 6 -15 9 -39 7 -54 -1 -16 5 -36 16 -48 10
-11 16 -27 13 -34 -3 -8 -2 -18 3 -23 5 -5 11 -20 13 -34 3 -14 6 -29 8 -35 5
-15 -11 -55 -22 -55 -5 0 -9 -13 -9 -30 0 -23 -4 -30 -20 -30 -11 0 -29 8 -39
17 -41 38 -51 43 -78 43 -25 -1 -26 -2 -10 -11 18 -10 18 -11 0 -31 -14 -16
-15 -22 -5 -26 10 -3 7 -8 -9 -16 -31 -15 -34 -33 -8 -41 18 -6 28 -2 44 19
19 24 65 37 65 17 0 -5 14 -11 30 -15 20 -3 30 -12 30 -23 0 -10 7 -26 15 -37
10 -13 11 -24 5 -37 -6 -11 -7 -27 -1 -43 8 -20 6 -27 -14 -40 -31 -20 -30
-20 -63 4 -31 23 -65 18 -60 -8 2 -8 16 -23 32 -32 34 -18 45 -40 22 -40 -9 0
-16 5 -16 10 0 6 -8 10 -17 10 -10 0 -26 9 -38 20 -11 11 -36 31 -55 43 -40
26 -67 72 -52 90 5 7 14 27 20 45 10 28 8 39 -8 70 -11 20 -20 45 -20 55 0 9
-11 22 -25 27 -17 7 -25 17 -25 34 0 14 -4 28 -10 31 -15 9 -12 35 3 35 8 0
22 9 32 20 16 18 16 20 1 35 -23 23 -20 44 9 57 14 6 25 17 25 24 0 8 11 16
24 20 23 5 66 68 66 97 0 8 6 20 14 26 15 13 5 97 -17 140 -6 13 -10 34 -9 46
2 16 -3 24 -20 29 -33 8 -60 7 -54 -3 3 -4 -7 -6 -22 -4 -15 3 -49 7 -77 9
-76 7 -91 12 -125 41 -29 24 -33 25 -42 10 -5 -9 -19 -17 -31 -17 -31 0 -67
-27 -67 -51 0 -11 -12 -36 -27 -55 -17 -23 -28 -52 -31 -84 -5 -54 -14 -66
-52 -72 -21 -2 -26 -9 -28 -41 -3 -31 2 -43 22 -62 28 -26 36 -75 12 -75 -27
0 -64 40 -71 76 -3 20 -16 53 -28 73 -13 20 -36 64 -52 98 -17 35 -33 63 -37
63 -10 0 -10 5 3 -66 6 -32 16 -68 23 -79 7 -11 16 -33 19 -50 7 -36 25 -108
38 -149 5 -19 5 -34 -2 -42 -12 -15 6 -94 21 -94 6 0 10 -7 10 -16 0 -8 -4
-13 -9 -10 -14 9 2 -49 17 -60 13 -10 13 -15 -4 -42 -16 -28 -17 -36 -5 -67
14 -40 8 -72 -14 -72 -16 0 -30 37 -22 59 2 7 -7 26 -19 41 -13 16 -24 41 -24
56 0 17 -10 39 -25 53 -28 29 -60 95 -56 120 1 9 -7 22 -18 27 -12 7 -23 26
-27 49 -11 63 -46 112 -78 112 -16 0 -3 -41 19 -58 14 -11 25 -29 25 -41 0
-13 6 -21 16 -21 14 0 14 -3 3 -16 -11 -14 -13 -14 -21 0 -7 12 -13 13 -33 4
-30 -14 -32 -28 -5 -35 22 -6 26 -18 9 -29 -6 -3 -22 5 -35 20 -14 14 -31 26
-39 26 -8 0 -15 7 -15 15 0 8 5 15 10 15 6 0 10 -6 10 -12 0 -9 4 -8 10 2 14
22 12 27 -10 33 -15 4 -20 14 -20 40 0 20 4 38 9 41 12 8 -9 77 -26 83 -7 3
-20 -1 -29 -8 -23 -19 -15 -184 10 -202 21 -16 14 -57 -10 -57 -8 0 -20 -13
-25 -30 -11 -31 -23 -38 -34 -20 -10 16 -35 12 -35 -6 0 -11 -5 -14 -16 -10
-9 3 -22 6 -30 6 -11 0 -13 6 -9 19 3 11 -1 25 -10 34 -8 9 -15 19 -15 24 0
12 -54 43 -74 43 -9 0 -16 5 -16 10 0 6 -9 10 -20 10 -11 0 -20 -2 -20 -5 0
-11 41 -45 55 -45 18 0 18 -4 3 -46 -9 -26 -18 -33 -47 -38 -22 -3 -38 -1 -43
7 -4 6 -11 8 -15 3 -4 -5 -2 -11 5 -13 6 -3 12 -10 12 -17 0 -15 -46 -10 -56
5 -9 15 -23 10 -34 -11 -8 -15 -6 -27 10 -54 11 -20 16 -35 12 -35 -29 5 -56
-5 -77 -26 -17 -19 -25 -23 -31 -14 -4 7 -2 15 4 17 7 2 12 11 12 19 0 11 -6
14 -22 10 -12 -3 -30 -1 -41 5 -14 7 -26 7 -43 -2 -19 -11 -28 -10 -51 5 -15
10 -38 29 -51 42 -25 27 -47 26 -48 -3 -1 -46 -19 -100 -41 -124 -33 -35 -39
-65 -18 -96 16 -25 16 -27 -5 -49 -12 -13 -24 -41 -27 -64 -7 -48 -23 -53 -56
-14 -34 41 -100 115 -129 147 -26 27 -30 28 -107 25 -75 -4 -81 -3 -93 19 -10
19 -10 25 1 31 9 6 6 10 -10 14 -32 8 -35 2 -20 -38 6 -19 14 -44 16 -56 2
-11 10 -27 16 -35 9 -11 9 -24 0 -54 -6 -22 -16 -40 -21 -40 -5 0 -18 13 -30
30 -11 16 -41 38 -66 49 -25 11 -57 30 -71 41 -20 15 -34 19 -56 14 -30 -6
-76 -49 -77 -70 0 -10 -27 -26 -62 -37 -9 -3 -22 1 -28 9 -14 16 -57 19 -62 4
-2 -6 -19 -3 -43 9 -28 13 -42 16 -47 8 -4 -6 -3 -16 2 -23 12 -14 3 -24 -22
-24 -19 0 -26 34 -8 45 5 3 10 13 10 22 0 12 -8 14 -32 10 -18 -2 -41 -1 -50
4 -25 13 -18 75 10 95 30 21 28 44 -4 44 -26 0 -26 1 -19 46 3 25 15 62 26 80
10 19 19 48 19 65 0 17 11 45 24 62 36 49 96 173 96 201 0 14 -7 31 -15 40
-30 29 14 79 135 155 8 5 49 26 90 46 57 27 88 51 130 98 30 34 81 82 113 106
32 24 61 50 64 58 3 7 37 41 77 74 201 172 266 234 266 255 0 19 53 60 124 95
38 19 74 42 80 51 6 10 15 18 19 18 28 0 67 45 82 94 29 91 101 141 160 109
27 -15 151 -8 219 12 68 20 154 26 159 12 2 -6 22 -10 45 -9 24 2 58 -5 77
-14 28 -13 38 -14 50 -4 8 7 12 16 9 21 -3 5 1 9 10 9 8 0 17 6 19 13 4 9 8 9
14 0 16 -23 61 -26 102 -6 22 10 41 24 41 31 0 21 101 20 187 -2 32 -8 80 -18
106 -21 l48 -7 16 41 c9 22 20 41 25 41 4 0 8 7 8 15 0 26 37 16 73 -20 19
-19 39 -35 45 -35 5 0 9 17 8 37 -1 38 -1 38 34 33 19 -2 59 -4 88 -3 28 1 52
-3 52 -7 0 -5 9 -12 20 -15 11 -4 32 -17 45 -31 13 -13 29 -24 35 -24 5 0 10
-4 10 -10 0 -5 7 -10 16 -10 8 0 12 5 8 11 -4 8 -1 8 12 1 20 -10 69 -16 116
-13 20 1 32 12 51 44 32 54 50 69 71 61 15 -6 15 -8 1 -18 -13 -10 -13 -14 0
-40 26 -50 11 -116 -26 -116 -6 0 -3 -7 6 -16 22 -22 15 -49 -13 -48 -12 0
-20 -2 -17 -4 3 -3 -3 -11 -13 -18 -16 -11 -15 -16 14 -57 18 -25 35 -55 39
-68 4 -13 16 -32 26 -42 14 -13 19 -32 19 -75 0 -31 7 -84 16 -117 8 -33 20
-85 26 -115 6 -30 14 -59 18 -64 5 -4 6 -32 3 -61 -4 -33 -1 -55 6 -59 6 -4
11 -22 11 -39 0 -18 4 -39 10 -47 5 -8 5 -17 1 -20 -12 -7 -22 -113 -12 -129
5 -8 3 -24 -5 -40 -16 -31 -18 -71 -4 -71 6 0 16 -11 22 -25 13 -30 19 -31 48
-7 45 36 88 345 61 440 -5 17 -5 36 1 46 6 11 6 27 0 44 -5 15 -7 68 -4 118 4
86 6 93 32 112 21 16 26 27 23 46 -5 23 -2 26 21 26 16 0 26 5 26 15 0 8 -8
15 -19 15 -34 0 -82 22 -77 35 2 7 -2 21 -9 32 -21 26 -19 96 3 121 11 12 37
24 62 28 24 4 50 15 59 24 38 41 51 62 51 85 0 14 5 25 11 25 5 0 7 5 4 10 -3
6 -2 10 4 10 5 0 12 -6 14 -12 4 -10 8 -10 15 1 8 12 13 12 25 3 8 -7 19 -12
23 -11 25 4 44 -3 44 -16 0 -13 -10 -17 -37 -14 -4 0 -10 -8 -14 -18 -9 -26
18 -67 53 -81 27 -10 29 -14 23 -42 -4 -19 -2 -36 5 -45 10 -11 10 -18 1 -29
-9 -11 -8 -17 3 -29 17 -16 24 -97 13 -137 -9 -31 5 -55 27 -47 27 11 22 173
-9 272 -14 44 -25 89 -25 100 0 11 -7 31 -16 43 -10 14 -14 34 -11 50 3 14 -3
54 -14 87 -24 77 -25 135 -3 135 22 0 38 -21 79 -105 19 -38 48 -90 65 -115
27 -42 66 -108 99 -169 8 -14 23 -32 33 -39 10 -7 25 -28 34 -45 9 -18 55 -83
101 -145 46 -63 94 -133 105 -155 12 -23 43 -64 69 -92 72 -76 139 -155 139
-164 0 -5 20 -21 44 -35 39 -23 76 -74 76 -105 0 -7 29 -41 65 -76 36 -36 65
-69 65 -74 0 -5 8 -12 18 -15 9 -4 39 -37 65 -75 27 -38 60 -79 73 -92 15 -14
24 -34 24 -54 0 -21 9 -40 25 -55 34 -32 29 -61 -15 -83 -35 -17 -74 -18 -198
-1 -42 6 -42 6 -32 -20 5 -14 6 -26 2 -27 -4 0 -25 -3 -47 -5 -22 -3 -49 -5
-60 -4 -37 4 -75 3 -81 -2 -3 -3 14 -24 37 -47 51 -52 43 -68 -9 -19 -20 20
-89 82 -152 139 -63 56 -133 123 -155 148 -22 25 -52 59 -67 75 -15 17 -35 45
-43 63 -9 18 -29 40 -45 49 -16 10 -31 27 -34 39 -8 30 -55 75 -72 68 -12 -4
-10 -12 7 -40 18 -29 20 -39 10 -55 -10 -16 -8 -23 9 -45 22 -29 26 -53 9 -70
-13 -13 -4 -33 15 -33 12 0 36 -30 78 -100 14 -24 14 -28 -2 -48 -21 -26 -27
-27 -46 -7 -9 8 -20 15 -25 15 -12 0 -12 -47 1 -55 6 -3 10 -17 10 -29 0 -13
9 -35 21 -50 12 -15 16 -26 9 -26 -7 0 4 -18 23 -39 20 -22 43 -53 51 -70 9
-16 26 -37 37 -45 13 -9 19 -21 16 -30 -4 -9 -3 -16 1 -16 15 0 87 -77 107
-113 11 -20 23 -37 27 -37 5 0 8 -7 8 -15 0 -8 6 -15 13 -15 18 0 56 -54 63
-90 l7 -30 -35 15 c-33 13 -48 12 -48 -6 0 -4 15 -12 33 -18 19 -7 42 -19 53
-29 10 -10 28 -22 39 -27 15 -6 5 -10 -44 -16 -35 -5 -69 -5 -75 -2 -6 4 -5 0
2 -9 10 -13 10 -17 -4 -22 -27 -10 -45 -7 -71 14 -18 14 -21 20 -10 20 8 0 18
-6 21 -12 3 -7 4 1 3 17 -2 25 -7 31 -29 33 -21 3 -26 0 -22 -11 3 -8 -2 -17
-11 -21 -18 -6 -85 41 -85 61 0 6 -13 18 -29 26 -28 14 -30 13 -35 -7 -4 -14
-8 -17 -14 -9 -4 6 -31 13 -60 15 -28 2 -52 7 -52 12 0 5 -8 18 -17 29 -13 14
-17 34 -16 79 1 39 -4 66 -12 74 -25 25 -40 414 -17 422 18 6 14 26 -9 56 -11
14 -18 30 -14 36 3 5 0 20 -7 32 -6 13 -13 43 -13 68 -1 25 -9 79 -17 120 -18
82 -30 156 -34 210 -1 19 -10 66 -19 104 -9 38 -18 92 -20 120 -9 113 -18 162
-32 178 -10 11 -14 33 -12 67 4 49 3 51 -22 51 -35 0 -41 -19 -46 -145 -8
-186 -4 -291 13 -333 10 -25 11 -39 3 -54 -6 -11 -8 -37 -5 -57 9 -64 17 -182
20 -322 2 -74 7 -150 11 -168 5 -23 3 -36 -5 -41 -10 -6 -9 -15 1 -43 9 -27
10 -47 2 -81 -6 -29 -7 -50 0 -62 6 -10 12 -51 14 -92 2 -44 9 -82 18 -95 8
-12 15 -38 15 -59 0 -20 4 -39 9 -42 5 -3 7 -15 4 -26 -3 -12 2 -29 13 -41 18
-20 17 -21 -8 -42 -40 -34 -43 -60 -9 -80 16 -9 31 -26 34 -37 4 -16 0 -20
-22 -20 -36 0 -69 36 -73 80 -3 31 -6 35 -35 38 -28 3 -35 -1 -44 -25 -6 -15
-16 -37 -21 -47 -8 -15 -6 -22 6 -32 10 -7 16 -14 15 -16 -1 -1 1 -13 5 -26 5
-16 3 -29 -8 -41 -14 -16 -14 -21 4 -56 l20 -39 -27 -23 -28 -23 33 -27 c18
-16 32 -33 32 -38 0 -6 8 -18 18 -27 59 -58 58 -55 29 -86 -19 -20 -25 -35
-21 -46 4 -10 3 -21 -2 -25 -5 -3 -14 -15 -20 -26 -6 -11 -25 -27 -42 -35 -17
-8 -32 -21 -32 -27 0 -10 919 -13 4560 -13 l4560 0 0 4800 0 4800 -6612 0
-6613 0 -2 -59z m6523 -310 c-7 -11 -56 -22 -135 -28 -68 -5 -78 9 -18 26 41
12 160 14 153 2z m-361 -32 c10 -15 -1 -22 -24 -14 -12 3 -19 11 -16 16 8 12
32 11 40 -2z m-900 -89 c-3 -5 -20 -10 -36 -10 -18 0 -28 4 -24 10 3 6 20 10
36 10 18 0 28 -4 24 -10z m-319 -95 c-5 -14 23 -37 41 -34 4 1 15 1 23 0 12
-1 12 -3 -1 -16 -18 -18 -139 -37 -156 -23 -14 11 41 74 72 81 11 3 22 5 24 6
2 0 1 -6 -3 -14z m-96 -79 c0 -3 -4 -8 -10 -11 -5 -3 -10 -1 -10 4 0 6 5 11
10 11 6 0 10 -2 10 -4z m1095 -6 c-3 -5 -13 -10 -21 -10 -8 0 -14 5 -14 10 0
6 9 10 21 10 11 0 17 -4 14 -10z m-11 -35 c3 -9 0 -15 -10 -15 -8 0 -20 -11
-26 -25 -6 -14 -15 -25 -19 -25 -4 0 -10 -11 -13 -25 -4 -14 -13 -25 -21 -25
-8 0 -15 -4 -15 -10 0 -15 28 -12 37 4 12 20 70 47 88 40 10 -4 13 -13 10 -25
-4 -12 -1 -21 10 -25 15 -6 15 -8 0 -25 -11 -11 -14 -25 -10 -38 4 -12 2 -21
-4 -21 -6 0 -11 5 -11 10 0 6 -4 10 -10 10 -5 0 -10 -7 -10 -15 0 -11 -11 -15
-40 -15 -27 0 -43 5 -46 15 -8 20 -34 19 -96 -5 -29 -11 -63 -20 -76 -20 -19
0 -21 -4 -16 -25 4 -18 1 -27 -10 -31 -9 -3 -16 -13 -16 -21 0 -8 5 -11 11 -8
16 10 6 -28 -11 -43 -13 -11 -11 -12 13 -7 32 6 64 35 69 61 3 18 15 26 87 59
34 15 50 9 51 -19 0 -8 69 -3 124 10 21 5 27 3 24 -6 -2 -8 -11 -17 -19 -22
-8 -4 -29 -16 -48 -27 l-33 -19 28 -16 c30 -16 23 -20 -28 -16 -22 1 -28 -3
-28 -18 0 -15 -5 -18 -25 -14 -31 5 -33 -14 -3 -24 l22 -7 -23 -18 c-13 -11
-34 -19 -46 -19 -13 0 -36 -5 -51 -11 -59 -22 -237 -39 -252 -24 -3 3 3 14 13
25 22 24 1 28 -29 5 -21 -16 -71 -21 -62 -6 3 5 22 12 41 15 19 4 35 11 35 16
0 14 67 40 101 40 15 0 31 5 34 10 4 6 -6 10 -24 10 -16 0 -33 5 -36 10 -4 6
-11 8 -17 4 -6 -4 -8 3 -6 17 2 16 10 24 23 24 16 0 20 6 18 32 -2 24 2 33 17
38 11 4 18 11 15 16 -4 5 -2 9 4 9 5 0 37 27 70 59 43 42 61 67 61 85 0 18 9
30 28 40 15 8 33 26 40 40 10 23 18 26 61 26 34 0 51 -4 55 -15z m556 -23 c0
-12 -69 -52 -87 -51 -16 0 -15 1 2 9 11 4 31 19 44 34 21 23 41 27 41 8z
m-1645 -61 l0 -43 43 5 c31 3 42 1 42 -9 0 -8 5 -14 10 -14 20 0 9 -28 -17
-46 -57 -36 -66 -68 -30 -102 20 -19 27 -19 70 -10 26 6 47 15 47 20 0 11 63
38 87 38 13 -1 7 -10 -22 -35 -33 -28 -37 -35 -22 -40 15 -7 15 -9 -4 -34
l-21 -26 37 -3 c21 -2 59 4 86 12 26 9 53 16 58 16 36 0 -22 -66 -67 -76 -86
-18 -96 -44 -17 -44 30 0 55 -4 55 -10 0 -12 -33 -30 -55 -30 -8 0 -33 -11
-54 -25 -22 -13 -66 -29 -99 -34 -33 -5 -74 -17 -91 -25 -34 -18 -61 -21 -61
-6 0 6 6 10 14 10 8 0 17 7 20 16 7 19 -3 64 -15 64 -15 0 -10 32 7 52 26 28
3 49 -39 37 -53 -15 -62 -11 -33 16 15 14 35 25 44 25 9 0 30 11 46 23 l29 24
-43 1 c-24 1 -50 7 -58 14 -12 10 -19 7 -38 -17 -17 -21 -33 -30 -54 -30 -16
-1 -30 3 -30 6 0 13 32 40 57 50 31 12 25 30 -15 48 -18 8 -32 21 -32 28 0 10
-9 12 -32 8 -18 -3 -50 -7 -71 -10 -20 -2 -57 -13 -82 -24 -25 -11 -45 -18
-45 -16 0 14 55 55 73 55 25 0 62 20 38 20 -11 0 -11 3 -1 15 7 8 24 15 38 15
29 0 107 43 115 64 4 9 -2 16 -16 20 -15 3 -18 9 -12 15 19 19 89 40 125 38
34 -2 35 -3 35 -46z m1279 -167 c8 -3 12 -12 9 -20 -6 -17 -57 -18 -86 -2 -21
12 -21 13 13 19 19 3 38 7 42 8 3 0 13 -2 22 -5z m-1354 -124 c0 -5 -4 -10
-10 -10 -5 0 -10 5 -10 10 0 6 5 10 10 10 6 0 10 -4 10 -10z m-3693 -162 c-3
-8 -6 -5 -6 6 -1 11 2 17 5 13 3 -3 4 -12 1 -19z m-17 4 c0 -13 -12 -22 -22
-16 -10 6 -1 24 13 24 5 0 9 -4 9 -8z m4240 -21 c0 -6 -5 -13 -10 -16 -6 -4
-8 -10 -5 -15 3 -5 -8 -23 -25 -40 -21 -22 -45 -33 -82 -40 -56 -11 -113 -34
-123 -50 -9 -15 -45 -12 -45 4 0 15 50 56 68 56 6 0 12 5 14 11 2 6 39 30 83
54 78 41 125 55 125 36z m-4390 -66 l-8 -40 -1 50 c-1 29 3 45 8 40 5 -6 6
-28 1 -50z m4190 31 c0 -15 -21 -26 -51 -26 -26 0 -24 19 4 30 32 13 47 12 47
-4z m-4050 -104 c0 -37 -33 -82 -45 -62 -6 9 -10 9 -16 -1 -7 -11 -9 -11 -9
-1 0 7 7 15 15 18 19 8 19 24 -1 38 -19 14 -10 40 19 53 27 13 37 1 37 -45z
m4412 37 c83 2 105 -10 60 -33 -15 -8 -33 -26 -39 -39 -8 -16 -28 -30 -59 -41
-56 -19 -78 -20 -68 -4 5 8 0 9 -17 4 -34 -10 -143 -24 -151 -19 -17 9 9 36
56 59 28 13 63 38 76 54 19 23 30 29 45 24 11 -4 54 -7 97 -5z m-4545 -41 c-3
-8 -6 -5 -6 6 -1 11 2 17 5 13 3 -3 4 -12 1 -19z m4793 1 c0 -3 11 -4 25 -1
40 7 29 -11 -21 -35 l-45 -22 -9 22 c-7 18 -9 19 -9 4 -1 -10 -5 -16 -9 -13
-7 4 -8 35 -3 54 2 6 71 -2 71 -9z m-1014 -456 c-3 -7 -15 -13 -26 -13 -18 0
-20 4 -14 23 3 12 11 28 17 35 9 11 13 9 19 -9 5 -12 6 -29 4 -36z m-426 -8
c0 -8 5 -15 11 -15 6 0 21 -13 35 -29 23 -28 27 -29 93 -26 38 2 79 9 91 15
34 18 50 6 50 -39 0 -22 9 -55 21 -75 20 -34 21 -35 72 -30 29 3 66 10 82 15
50 15 118 13 155 -4 19 -8 60 -19 90 -23 30 -3 71 -15 90 -25 22 -12 45 -17
61 -14 28 6 99 -18 99 -33 0 -15 -33 -39 -74 -53 -22 -8 -41 -22 -44 -32 -3
-11 -18 -19 -44 -24 -27 -4 -52 -17 -74 -39 -35 -36 -53 -41 -72 -22 -15 15
-60 -16 -79 -53 -10 -20 -21 -24 -65 -26 -63 -3 -92 -16 -107 -50 -6 -13 -11
-26 -11 -28 0 -16 84 -34 189 -39 67 -3 149 -13 184 -22 34 -9 72 -18 85 -21
28 -7 27 -20 -1 -55 -16 -19 -43 -32 -98 -47 -41 -11 -95 -29 -120 -39 -24
-10 -68 -22 -98 -26 -30 -4 -75 -17 -100 -30 -25 -12 -80 -33 -121 -46 -99
-32 -276 -124 -322 -168 -21 -20 -43 -52 -49 -71 -6 -20 -16 -41 -21 -48 -13
-16 -4 -42 26 -74 22 -24 27 -25 77 -17 95 15 232 26 246 21 8 -3 40 2 71 10
31 9 131 28 222 42 158 25 218 38 323 72 27 9 67 16 90 17 23 2 51 7 62 13 11
6 38 14 60 18 21 3 51 15 66 26 15 10 39 19 53 19 15 0 44 9 66 20 22 11 51
20 65 20 15 0 41 14 64 35 21 19 45 35 54 35 9 0 19 5 23 11 3 6 15 8 27 5 57
-14 164 103 178 197 7 42 17 58 64 105 72 71 94 82 170 82 55 0 74 -6 142 -42
43 -22 83 -46 88 -53 16 -18 76 -60 115 -80 38 -20 60 -39 60 -53 0 -5 13 -23
29 -39 47 -50 54 -70 47 -139 -4 -34 -13 -78 -21 -98 -21 -51 -20 -56 30 -108
25 -26 45 -51 45 -56 0 -5 25 -26 55 -48 61 -43 102 -103 109 -157 6 -51 -11
-61 -98 -59 -70 3 -77 1 -170 -47 -73 -38 -116 -53 -174 -62 -42 -6 -87 -15
-100 -20 -13 -5 -35 -9 -50 -9 -15 0 -54 -13 -87 -30 -33 -16 -66 -30 -73 -30
-12 0 -91 -39 -102 -50 -16 -17 -69 -30 -121 -30 -56 0 -62 -2 -101 -40 -23
-22 -46 -40 -52 -40 -5 0 -29 -9 -52 -21 -32 -15 -44 -27 -46 -47 -2 -17 -15
-34 -38 -48 -40 -25 -64 -49 -99 -94 -31 -41 -24 -88 22 -139 18 -20 41 -61
51 -90 21 -64 47 -101 88 -125 25 -16 43 -18 104 -12 41 3 101 15 134 26 71
24 96 25 134 5 15 -8 35 -15 43 -15 39 0 96 -92 138 -225 11 -33 23 -65 27
-71 10 -14 200 -39 224 -30 34 13 133 -17 168 -50 54 -51 57 -62 32 -125 -15
-40 -34 -67 -64 -93 -24 -20 -49 -36 -55 -36 -6 0 -18 -6 -26 -14 -9 -8 -39
-26 -68 -41 -50 -24 -54 -25 -88 -10 -28 11 -42 12 -57 4 -30 -16 -101 7 -132
42 -23 26 -33 29 -86 29 -52 0 -61 -3 -76 -25 -9 -14 -22 -25 -29 -25 -17 0
-103 -39 -110 -49 -8 -14 -96 -61 -113 -61 -19 0 -62 -39 -62 -56 0 -8 -15
-21 -32 -30 -18 -10 -49 -30 -68 -45 -55 -45 -160 -76 -260 -77 -97 -1 -141
-16 -212 -71 -26 -20 -65 -49 -87 -65 -38 -28 -61 -68 -61 -107 0 -21 22 -35
91 -55 46 -14 56 -13 137 6 48 12 110 32 138 46 74 35 142 54 195 54 26 0 66
9 90 20 31 14 66 20 117 20 41 0 149 5 240 10 174 11 423 2 552 -20 59 -10 85
-12 183 -10 125 3 149 -1 173 -25 46 -46 22 -104 -63 -155 -48 -29 -56 -32
-78 -20 -21 11 -31 10 -74 -9 -27 -11 -59 -21 -70 -21 -10 0 -41 -9 -68 -21
-66 -29 -72 -29 -190 -20 -105 8 -216 -6 -298 -39 -18 -7 -50 -9 -80 -6 -36 5
-83 -1 -165 -19 -63 -15 -135 -29 -160 -31 -85 -9 -86 -10 -82 -47 2 -21 -4
-48 -17 -73 -12 -21 -21 -47 -21 -56 0 -10 -5 -18 -11 -18 -6 0 -7 -5 -2 -12
4 -7 8 -39 9 -70 2 -46 -1 -61 -15 -70 -26 -18 -10 -56 26 -63 15 -3 44 -10
63 -15 173 -44 224 -52 293 -46 40 4 192 9 338 12 204 5 272 3 290 -6 13 -7
62 -14 109 -14 47 -1 95 -7 108 -14 12 -7 26 -11 31 -8 18 11 124 -14 143 -34
10 -11 30 -20 43 -20 35 0 107 -36 137 -68 41 -44 43 -66 8 -102 -16 -17 -30
-40 -30 -50 0 -11 -5 -20 -10 -20 -6 0 -20 -9 -32 -20 -13 -12 -34 -19 -55
-18 -24 1 -45 -8 -74 -31 -22 -18 -64 -43 -93 -54 -30 -13 -66 -38 -85 -59
-28 -32 -39 -38 -73 -38 -34 0 -46 -6 -74 -37 l-34 -37 -53 13 c-60 14 -48 14
-197 0 -63 -6 -123 -15 -132 -20 -10 -5 -30 -9 -45 -9 -22 0 -25 -2 -13 -10
17 -11 18 -10 -30 -14 -31 -3 -53 -9 -125 -37 -24 -9 -126 -33 -210 -49 -33
-7 -80 -19 -105 -27 -51 -17 -63 -18 -142 -8 -36 5 -73 3 -100 -4 -39 -11 -48
-10 -95 14 -29 14 -59 25 -66 25 -8 0 -34 13 -58 30 -24 16 -49 30 -55 30 -6
0 -19 9 -29 20 -10 11 -39 32 -64 47 -25 14 -50 32 -54 39 -11 20 -88 71 -157
105 -41 20 -74 29 -109 29 -27 0 -52 4 -55 9 -9 15 -99 64 -116 64 -8 0 -35
17 -59 39 -24 21 -47 38 -52 38 -4 0 -10 9 -14 20 -3 11 -22 27 -41 36 -19 9
-44 31 -57 48 -12 17 -45 54 -74 82 -58 56 -112 130 -113 154 0 8 -9 26 -20
40 -11 14 -20 28 -20 32 0 4 -11 31 -25 60 -29 64 -94 240 -106 288 -4 19 -23
87 -42 150 l-34 115 -76 0 -76 -1 -32 71 c-29 64 -32 83 -40 215 -4 80 -15
177 -24 215 -11 48 -18 137 -20 280 -3 116 -7 230 -10 255 -11 90 -14 242 -4
267 10 28 36 28 53 -1 8 -14 8 -20 -1 -23 -20 -7 -16 -77 5 -96 16 -15 17 -10
19 96 2 84 -2 121 -14 150 -9 20 -20 37 -26 37 -5 0 0 15 11 34 23 40 19 86
-10 94 -45 11 -64 119 -29 163 25 31 33 21 39 -45 3 -34 10 -57 18 -60 10 -4
14 4 14 27 0 18 10 68 21 112 12 44 23 94 25 110 3 17 9 59 15 94 8 48 7 66
-2 71 -8 6 -3 33 19 101 33 101 57 204 67 284 4 28 17 93 30 145 23 94 35 153
60 300 7 41 25 104 39 140 27 64 30 81 40 190 7 73 9 80 47 189 26 75 45 109
97 175 36 44 73 86 81 93 22 17 41 16 41 -2z m-3023 -170 c-4 -9 -36 -9 -45 0
-2 2 2 13 9 26 11 22 12 22 25 4 8 -11 13 -24 11 -30z m-57 -535 c0 -5 -2 -10
-4 -10 -3 0 -8 5 -11 10 -3 6 -1 10 4 10 6 0 11 -4 11 -10z m6494 -1170 c33
-17 75 -43 93 -59 37 -33 59 -77 40 -84 -8 -2 -11 -26 -10 -70 2 -61 18 -112
52 -167 29 -48 46 -109 44 -159 -2 -30 2 -70 9 -88 10 -27 9 -35 -4 -50 -8
-10 -20 -31 -25 -47 -7 -24 -15 -29 -49 -32 -39 -4 -42 -2 -100 68 -68 83 -83
106 -84 131 0 10 -14 38 -30 61 -20 27 -35 65 -43 111 -8 39 -21 84 -29 100
-9 17 -21 58 -28 92 -11 53 -10 65 4 90 9 15 20 40 26 56 5 15 16 27 25 27 8
0 15 8 15 18 0 41 15 41 94 2z m-6624 -74 c0 -18 -16 -29 -30 -21 -13 8 -1 35
16 35 8 0 14 -6 14 -14z m-72 -244 c3 -27 0 -32 -17 -32 -17 0 -21 6 -21 36 0
28 3 35 18 32 11 -2 18 -14 20 -36z m-378 -1251 c0 -6 -4 -13 -10 -16 -5 -3
-10 1 -10 9 0 9 5 16 10 16 6 0 10 -4 10 -9z m80 -295 c0 -3 -4 -8 -10 -11 -5
-3 -10 -1 -10 4 0 6 5 11 10 11 6 0 10 -2 10 -4z m-132 -34 c2 -7 -3 -12 -12
-12 -9 0 -16 7 -16 16 0 17 22 14 28 -4z m-201 -174 c-3 -8 -6 -5 -6 6 -1 11
2 17 5 13 3 -3 4 -12 1 -19z m-16 -27 c-10 -6 -12 -20 -8 -45 5 -28 2 -36 -10
-36 -12 0 -14 7 -8 37 8 45 12 53 28 53 8 0 7 -3 -2 -9z m-231 -206 c0 -8 -4
-15 -9 -15 -13 0 -22 16 -14 24 11 11 23 6 23 -9z m-80 -25 c0 -5 -5 -10 -11
-10 -5 0 -7 5 -4 10 3 6 8 10 11 10 2 0 4 -4 4 -10z m-212 -205 c0 -13 -4 -22
-9 -20 -4 3 -10 1 -14 -5 -12 -20 -25 -10 -25 20 0 25 4 30 24 30 18 0 24 -5
24 -25z m-172 -115 c26 -10 27 -12 10 -28 -16 -16 -18 -16 -27 1 -7 11 -22 17
-44 17 -19 0 -35 5 -35 10 0 13 61 13 96 0z m119 -10 c3 -6 -1 -13 -10 -16
-19 -8 -30 0 -20 15 8 14 22 14 30 1z m-252 -7 c-7 -2 -21 -2 -30 0 -10 3 -4
5 12 5 17 0 24 -2 18 -5z m80 -139 c4 -21 1 -24 -17 -18 -49 15 -60 56 -12 47
16 -3 26 -13 29 -29z m-123 -4 c0 -5 -5 -10 -11 -10 -5 0 -7 5 -4 10 3 6 8 10
11 10 2 0 4 -4 4 -10z m20 -55 c10 -12 10 -15 -4 -15 -9 0 -16 7 -16 15 0 8 2
15 4 15 2 0 9 -7 16 -15z m-40 -26 c0 -5 -7 -9 -15 -9 -15 0 -20 12 -9 23 8 8
24 -1 24 -14z m3773 -73 c4 -11 -2 -14 -24 -14 -17 1 -29 6 -29 15 0 18 46 17
53 -1z m107 -12 c0 -2 -7 -4 -15 -4 -8 0 -15 4 -15 10 0 5 7 7 15 4 8 -4 15
-8 15 -10z m-3724 -22 c-12 -12 -19 -13 -27 -5 -16 16 -3 32 22 26 19 -5 19
-7 5 -21z m-425 -44 c8 -7 21 -21 28 -30 12 -16 10 -18 -23 -18 -25 0 -36 4
-36 15 0 8 -5 15 -10 15 -6 0 -5 6 2 15 16 18 20 18 39 3z m1389 -1286 c0 -10
-57 -72 -66 -72 -8 0 5 52 18 67 11 14 48 18 48 5z m-84 -113 c-2 -17 -11 -36
-19 -42 -8 -7 -17 -23 -21 -37 -10 -41 -23 -57 -37 -43 -17 17 -3 60 21 66 11
3 20 12 20 21 0 16 28 66 37 66 2 0 2 -14 -1 -31z m2554 -14 c0 -8 -4 -15 -10
-15 -5 0 -10 7 -10 15 0 8 5 15 10 15 6 0 10 -7 10 -15z m-118 -26 c72 -3 115
-58 103 -138 -6 -46 -25 -112 -35 -121 -3 -3 -5 -14 -5 -25 0 -32 -38 -31 -52
2 -25 56 -53 147 -53 169 0 13 -5 26 -11 29 -19 12 -30 55 -18 76 5 11 14 17
19 14 4 -3 28 -6 52 -6z m1788 -79 c0 -5 -4 -10 -10 -10 -5 0 -10 5 -10 10 0
6 5 10 10 10 6 0 10 -4 10 -10z m5484 -22 c22 -20 25 -28 20 -61 -5 -28 -13
-41 -31 -48 -14 -5 -29 -7 -34 -3 -13 8 -11 31 4 38 6 3 -3 3 -20 0 -40 -7
-40 -2 -8 40 14 18 25 38 25 44 0 18 16 14 44 -10z m-8004 -48 c0 -5 -4 -10
-10 -10 -5 0 -10 5 -10 10 0 6 5 10 10 10 6 0 10 -4 10 -10z m1385 -50 c3 -5
1 -10 -4 -10 -6 0 -11 5 -11 10 0 6 2 10 4 10 3 0 8 -4 11 -10z m-1425 -60 c0
-5 -6 -10 -14 -10 -8 0 -18 5 -21 10 -3 6 3 10 14 10 12 0 21 -4 21 -10z
m3054 -10 c7 0 21 -9 31 -20 14 -16 15 -20 3 -20 -18 0 -58 37 -57 53 0 9 2 9
6 0 2 -7 10 -13 17 -13z m-271 -60 c3 -13 0 -20 -8 -20 -18 0 -28 17 -21 36 7
19 22 11 29 -16z m-4546 -22 c6 -13 14 -38 17 -57 5 -29 4 -32 -9 -21 -22 18
-45 69 -38 86 8 20 18 17 30 -8z m1543 2 c0 -5 -4 -10 -9 -10 -6 0 -13 5 -16
10 -3 6 1 10 9 10 9 0 16 -4 16 -10z m-1627 -34 c18 -14 23 -51 7 -61 -6 -4
-6 -15 0 -31 6 -14 10 -47 10 -73 l0 -48 -46 -1 c-38 -2 -47 1 -51 18 -3 11
-11 20 -18 20 -8 0 -23 12 -34 26 -16 21 -18 30 -10 48 10 20 108 115 119 115
3 0 13 -6 23 -13z m5062 -6 c3 -5 2 -10 -4 -10 -5 0 -13 5 -16 10 -3 6 -2 10
4 10 5 0 13 -4 16 -10z m5625 -100 c0 -5 -4 -10 -10 -10 -5 0 -10 5 -10 10 0
6 5 10 10 10 6 0 10 -4 10 -10z m-7391 -47 c2 -1 -2 -16 -9 -33 -10 -23 -19
-30 -40 -30 -28 0 -55 21 -43 33 3 4 15 7 25 7 22 0 24 16 3 24 -13 5 -14 10
-5 27 l12 21 26 -24 c15 -12 29 -24 31 -25z m1622 -16 c44 -50 43 -55 -9 -52
-94 5 -170 79 -89 87 42 4 74 -7 98 -35z m-4741 -49 c7 -37 7 -54 -1 -64 -21
-26 -30 -4 -46 111 -5 40 -5 40 15 22 12 -11 26 -42 32 -69z m-523 10 c6 -13
17 -38 25 -55 7 -18 16 -33 20 -33 3 0 21 14 38 32 31 31 32 31 60 15 15 -10
36 -17 45 -17 9 0 23 -7 31 -15 11 -10 21 -12 32 -6 18 10 33 -1 111 -80 70
-71 122 -82 180 -37 34 26 57 22 80 -14 11 -18 29 -41 40 -50 12 -10 21 -25
21 -33 0 -23 -38 -18 -66 9 -22 19 -33 23 -72 19 -26 -3 -58 -13 -72 -21 -95
-62 -86 -62 -264 -7 -65 20 -126 33 -134 30 -8 -3 -30 -1 -49 6 l-34 11 2 64
c1 46 -2 69 -14 82 -31 34 -39 71 -19 97 21 30 26 31 39 3z m876 -5 c-13 -37
-53 -38 -53 -2 0 14 7 19 30 19 24 0 28 -3 23 -17z m2617 -1 c0 -23 -19 -42
-42 -42 -24 0 -23 16 2 23 11 3 20 12 20 21 0 9 5 16 10 16 6 0 10 -8 10 -18z
m-3622 -93 c-2 -22 -10 -34 -26 -40 -13 -5 -21 -5 -17 0 3 5 -1 11 -7 14 -9 3
-5 12 11 31 32 34 43 33 39 -5z m3796 15 c8 -22 -25 -63 -51 -64 -21 0 -21 1
-7 28 7 15 14 33 14 40 0 18 37 15 44 -4z m1043 10 c-3 -3 -12 -4 -19 -1 -8 3
-5 6 6 6 11 1 17 -2 13 -5z m-4147 -57 c0 -15 -3 -16 -20 -7 -22 12 -27 36 -7
43 14 5 27 -11 27 -36z m4970 -27 c0 -5 -7 -10 -16 -10 -8 0 -12 5 -9 10 3 6
10 10 16 10 5 0 9 -4 9 -10z m35 -20 c3 -5 -1 -10 -9 -10 -9 0 -16 5 -16 10 0
6 4 10 9 10 6 0 13 -4 16 -10z m-5732 -97 c4 -21 2 -42 -3 -47 -5 -5 -7 -21
-4 -35 3 -17 -6 -48 -30 -94 -29 -57 -33 -72 -24 -87 10 -15 9 -23 -5 -38 -9
-10 -17 -31 -17 -46 0 -54 -25 -4 -28 56 -3 59 27 184 54 222 7 11 11 30 8 43
-4 15 0 31 11 43 25 28 32 25 38 -17z m5286 8 c24 -15 -6 -41 -45 -41 -34 0
-34 0 -18 25 17 26 39 31 63 16z m5729 -23 c2 -10 -6 -19 -18 -23 -27 -9 -30
-5 -19 23 10 26 32 25 37 0z m-5071 6 c-3 -3 -12 -4 -19 -1 -8 3 -5 6 6 6 11
1 17 -2 13 -5z m5437 0 c22 -9 20 -40 -4 -57 -26 -18 -80 -10 -80 12 0 25 13
39 40 44 14 2 26 5 27 6 1 0 8 -2 17 -5z m-6949 -194 c-3 -5 -12 -7 -20 -3
-21 7 -19 13 6 13 11 0 18 -4 14 -10z m-4024 -103 c-6 -8 -7 -18 -3 -22 4 -5
1 -5 -5 -1 -19 10 -16 36 3 36 13 0 14 -3 5 -13z m-477 -92 c3 -8 1 -15 -4
-15 -6 0 -10 7 -10 15 0 8 2 15 4 15 2 0 6 -7 10 -15z"/>
<path d="M1080 9570 c-8 -16 -8 -20 4 -20 8 0 21 -9 29 -21 11 -15 17 -17 23
-8 4 7 2 15 -4 17 -7 2 -12 12 -12 22 0 26 -28 33 -40 10z"/>
<path d="M1097 9484 c-11 -11 3 -24 24 -24 12 0 19 5 17 13 -5 14 -31 21 -41
11z"/>
<path d="M2192 7740 c0 -14 2 -19 5 -12 2 6 2 18 0 25 -3 6 -5 1 -5 -13z"/>
<path d="M2191 7694 c0 -11 3 -14 6 -6 3 7 2 16 -1 19 -3 4 -6 -2 -5 -13z"/>
<path d="M2237 7691 c-4 -17 -3 -21 5 -13 5 5 8 16 6 23 -3 8 -7 3 -11 -10z"/>
<path d="M2320 7349 c0 -5 5 -7 10 -4 6 3 10 8 10 11 0 2 -4 4 -10 4 -5 0 -10
-5 -10 -11z"/>
<path d="M2340 7220 c0 -5 5 -10 10 -10 6 0 10 5 10 10 0 6 -4 10 -10 10 -5 0
-10 -4 -10 -10z"/>
<path d="M2261 6967 c-6 -8 -8 -17 -4 -20 7 -8 33 11 33 24 0 13 -16 11 -29
-4z"/>
<path d="M2120 5989 c0 -5 5 -7 10 -4 6 3 10 8 10 11 0 2 -4 4 -10 4 -5 0 -10
-5 -10 -11z"/>
<path d="M2010 5360 c-16 -10 -9 -40 12 -53 13 -9 23 -4 49 21 18 18 29 32 23
33 -5 0 -23 2 -40 3 -18 2 -37 0 -44 -4z"/>
<path d="M1960 4983 c0 -13 5 -23 10 -23 13 0 13 11 0 30 -8 12 -10 11 -10 -7z"/>
<path d="M1777 4496 c-7 -17 17 -41 32 -32 13 8 2 46 -14 46 -7 0 -15 -6 -18
-14z"/>
<path d="M1673 4153 c15 -2 37 -2 50 0 12 2 0 4 -28 4 -27 0 -38 -2 -22 -4z"/>
<path d="M1553 4083 c-7 -2 -13 -11 -13 -20 0 -20 34 -12 38 10 3 17 -3 20
-25 10z"/>
<path d="M1464 4029 c-9 -15 23 -46 34 -34 5 6 1 17 -9 27 -12 11 -21 14 -25
7z"/>
<path d="M1351 3964 c0 -11 3 -14 6 -6 3 7 2 16 -1 19 -3 4 -6 -2 -5 -13z"/>
<path d="M1360 3770 c0 -5 9 -10 20 -10 11 0 20 5 20 10 0 6 -9 10 -20 10 -11
0 -20 -4 -20 -10z"/>
<path d="M1114 3722 c-6 -4 -8 -16 -4 -26 6 -18 7 -18 13 4 7 28 6 32 -9 22z"/>
<path d="M831 3501 c-8 -14 -7 -22 4 -31 11 -9 18 -7 34 9 12 12 21 26 21 31
0 18 -49 11 -59 -9z"/>
<path d="M690 3420 c-8 -5 -12 -12 -9 -15 8 -8 39 5 39 16 0 11 -11 11 -30 -1z"/>
<path d="M810 3390 c0 -5 5 -10 10 -10 6 0 10 5 10 10 0 6 -4 10 -10 10 -5 0
-10 -4 -10 -10z"/>
<path d="M140 2923 c0 -5 8 -17 16 -28 15 -20 15 -20 30 -1 7 11 13 20 11 21
-9 8 -57 14 -57 8z"/>
<path d="M4402 2750 c0 -14 2 -19 5 -12 2 6 2 18 0 25 -3 6 -5 1 -5 -13z"/>
<path d="M4544 2744 c3 -9 6 -19 6 -22 0 -9 20 21 20 31 0 4 -7 7 -16 7 -11 0
-14 -5 -10 -16z"/>
<path d="M3780 2710 c0 -5 4 -10 9 -10 6 0 13 5 16 10 3 6 -1 10 -9 10 -9 0
-16 -4 -16 -10z"/>
<path d="M3705 2620 c5 -25 35 -69 35 -52 0 9 7 11 19 7 30 -9 36 14 10 41
-28 30 -70 33 -64 4z"/>
<path d="M5654 2049 c4 -24 15 -62 26 -84 10 -22 25 -53 32 -70 l12 -30 3 30
c4 35 -49 187 -67 193 -10 4 -11 -6 -6 -39z"/>
<path d="M3270 1461 c0 -12 5 -21 10 -21 6 0 10 6 10 14 0 8 -4 18 -10 21 -5
3 -10 -3 -10 -14z"/>
<path d="M3235 1280 c-3 -5 1 -10 10 -10 9 0 13 5 10 10 -3 6 -8 10 -10 10 -2
0 -7 -4 -10 -10z"/>
<path d="M5069 1282 c-4 -29 5 -106 17 -146 8 -27 14 -65 14 -84 0 -47 59
-126 113 -152 22 -11 46 -20 52 -20 7 0 18 -18 25 -40 7 -22 18 -39 24 -37 14
5 11 86 -4 101 -5 5 -10 33 -10 62 0 33 -5 56 -14 64 -8 6 -12 18 -9 26 3 8
-4 17 -19 23 -13 5 -43 38 -67 72 -79 119 -86 127 -103 132 -10 3 -18 2 -19
-1z"/>
<path d="M2924 1205 c-3 -8 -3 -19 1 -25 8 -12 35 -13 35 -1 0 5 3 16 6 25 4
12 0 16 -15 16 -12 0 -24 -7 -27 -15z"/>
<path d="M4480 1186 c0 -7 9 -16 20 -19 15 -4 20 0 20 14 0 12 -7 19 -20 19
-11 0 -20 -6 -20 -14z"/>
<path d="M1880 1070 c0 -13 5 -18 15 -14 8 4 15 12 15 20 0 8 -7 14 -15 14 -8
0 -15 -9 -15 -20z"/>
<path d="M1876 1005 c-3 -8 -1 -15 4 -15 6 0 10 7 10 15 0 8 -2 15 -4 15 -2 0
-6 -7 -10 -15z"/>
<path d="M5287 784 c-4 -4 -7 -20 -7 -36 0 -25 4 -28 30 -28 34 0 49 23 33 49
-11 17 -44 26 -56 15z"/>
</g>
</svg>
