<svg version="1.1" viewBox="0.0 0.0 960.0 720.0" fill="none" stroke="none" stroke-linecap="square" stroke-miterlimit="10" xmlns:xlink="http://www.w3.org/1999/xlink" xmlns="http://www.w3.org/2000/svg"><clipPath id="p.0"><path d="m0 0l960.0 0l0 720.0l-960.0 0l0 -720.0z" clip-rule="nonzero"/></clipPath><g clip-path="url(#p.0)"><path fill="#000000" fill-opacity="0.0" d="m0 0l960.0 0l0 720.0l-960.0 0z" fill-rule="evenodd"/><path fill="#d9ac36" d="m89.38058 164.48364l0 0c0 -19.540543 15.840744 -35.381287 35.381287 -35.381287l630.6233 0c9.383667 0 18.383057 3.7276611 25.01831 10.362946c6.635315 6.6352844 10.362976 15.634644 10.362976 25.018341l0 141.5209c0 19.540527 -15.840759 35.381287 -35.381287 35.381287l-630.6233 0c-19.540543 0 -35.381287 -15.840759 -35.381287 -35.381287z" fill-rule="evenodd"/><path stroke="#000000" stroke-width="8.0" stroke-linejoin="round" stroke-linecap="butt" d="m89.38058 164.48364l0 0c0 -19.540543 15.840744 -35.381287 35.381287 -35.381287l630.6233 0c9.383667 0 18.383057 3.7276611 25.01831 10.362946c6.635315 6.6352844 10.362976 15.634644 10.362976 25.018341l0 141.5209c0 19.540527 -15.840759 35.381287 -35.381287 35.381287l-630.6233 0c-19.540543 0 -35.381287 -15.840759 -35.381287 -35.381287z" fill-rule="evenodd"/><path fill="#000000" fill-opacity="0.0" d="m99.14444 160.09448l681.8583 0l0 150.29922l-681.8583 0z" fill-rule="evenodd"/><path fill="#eee1c6" d="m192.05783 274.07135q-7.078125 0 -12.859375 -2.484375q-5.78125 -2.484375 -9.90625 -7.046875q-4.125 -4.5625 -6.1875 -10.781235l12.6875 -4.6875q2.4375 5.1875 6.78125 8.51561q4.34375 3.3125 9.796875 3.3125q5.78125 0 9.203125 -2.421875q3.4375 -2.4375 3.4375 -7.0937347q0 -3.171875 -2.03125 -5.3125q-2.015625 -2.140625 -5.453125 -3.671875q-3.421875 -1.53125 -7.75 -3.0q-4.15625 -1.40625 -8.375 -3.125q-4.203125 -1.734375 -7.71875 -4.234375q-3.5 -2.515625 -5.640625 -6.34375q-2.125 -3.84375 -2.125 -9.40625q0 -5.5625 2.96875 -10.203125q2.96875 -4.640625 8.609375 -7.421875q5.640625 -2.78125 13.6875 -2.78125q6.59375 0 11.6875 2.25q5.109375 2.234375 8.453125 6.0625q3.359375 3.828125 4.65625 8.6875l-12.53125 4.15625q-1.515625 -3.390625 -4.625 -5.6875q-3.09375 -2.296875 -8.390625 -2.296875q-4.96875 0 -7.734375 1.953125q-2.75 1.9375 -2.75 5.5q0 2.421875 1.859375 4.125q1.875 1.703125 5.03125 3.0625q3.15625 1.34375 7.15625 2.75q4.484375 1.515625 8.9375 3.4375q4.453125 1.90625 8.09375 4.65625q3.65625 2.75 5.859375 6.828125q2.21875 4.078125 2.21875 9.96875q0 7.2343597 -3.59375 12.312485q-3.59375 5.078125 -9.703125 7.75q-6.09375 2.671875 -13.75 2.671875zm257.08563 20.625l0 -77.10936l13.5 0l0 4.046875q4.53125 -5.34375 12.15625 -5.34375q7.0625 0 12.1875 3.484375q5.140625 3.484375 7.890625 9.96875q2.765625 6.46875 2.765625 15.4375q0 8.6875 -2.875 15.20311q-2.859375 6.5 -8.046875 10.09375q-5.171875 3.59375 -12.09375 3.59375q-3.78125 0 -6.8125 -1.375q-3.015625 -1.375 -5.171875 -4.078125l0 19.984375l-13.5 6.09375zm23.484375 -33.53125q5.515625 0 8.484375 -4.1875q2.96875 -4.1874847 2.96875 -11.79686q0 -7.609375 -3.03125 -11.8125q-3.015625 -4.21875 -8.421875 -4.21875q-3.28125 0 -5.75 1.1875q-2.453125 1.1875 -4.234375 3.609375l0 22.29686q1.453125 2.328125 4.125 3.625q2.6875 1.296875 5.859375 1.296875zm88.67386 12.90625q-7.9375 0 -13.6875 -3.5625q-5.75 -3.5625 -8.859375 -10.0625q-3.09375 -6.5156097 -3.09375 -15.312485q0 -8.921875 3.15625 -15.390625q3.15625 -6.484375 8.90625 -9.96875q5.75 -3.484375 13.578125 -3.484375q6.703125 0 12.15625 2.8125q5.453125 2.796875 8.6875 8.609375q3.234375 5.796875 3.234375 14.765625q0 1.40625 -0.078125 3.4375q-0.078125 2.015625 -0.296875 4.078125l-36.015625 0q0.21875 3.765625 1.75 6.6093597q1.546875 2.828125 4.25 4.40625q2.703125 1.5625 6.375 1.5625q3.9375 0 6.84375 -1.328125q2.921875 -1.328125 5.515625 -4.234375l7.78125 8.046875q-3.5625 4.046875 -8.59375 6.53125q-5.015625 2.484375 -11.609375 2.484375zm-12.25 -34.60936l23.265625 0q-0.265625 -3.625 -1.625 -6.234375q-1.34375 -2.625 -3.78125 -4.03125q-2.421875 -1.40625 -5.875 -1.40625q-4.75 0 -8.109375 2.921875q-3.34375 2.90625 -3.875 8.75zm76.67145 33.312485l0 -55.187485l13.5 0l0 5.9375q1.515625 -3.1875 4.75 -5.203125q3.25 -2.03125 6.8125 -2.03125q5.875 0 9.9375 4.046875l-1.890625 12.375q-2.21875 -1.84375 -4.328125 -2.59375q-2.109375 -0.765625 -4.640625 -0.765625q-3.34375 0 -5.71875 1.578125q-2.375 1.5625 -3.65625 4.53125q-1.265625 2.96875 -1.265625 7.125l0 30.187485l-13.5 0zm75.98187 -20.843735l-2.96875 -31.75l0 -24.296875l13.4375 0l0 24.296875l-3.015625 31.75l-7.453125 0zm3.671875 22.187485q-3.9375 0 -6.515625 -2.671875q-2.5625 -2.671875 -2.5625 -6.34375q0 -3.828125 2.5625 -6.5q2.578125 -2.6718597 6.515625 -2.6718597q3.9375 0 6.609375 2.6718597q2.671875 2.671875 2.671875 6.5q0 3.671875 -2.671875 6.34375q-2.671875 2.671875 -6.609375 2.671875z" fill-rule="nonzero"/><path fill="#000000" fill-opacity="0.0" d="m224.79512 92.45285l207.20955 0l0 169.67572l-207.20955 0z" fill-rule="evenodd"/><path fill="#000000" d="m293.0006 221.97723q-13.390625 0 -21.140625 -8.859375q-7.75 -8.875 -7.75 -24.25q0 -10.15625 3.53125 -17.625q3.53125 -7.484375 10.0 -11.546875q6.484375 -4.0625 15.359375 -4.0625q8.796875 0 15.25 4.03125q6.453125 4.03125 9.921875 11.484375q3.46875 7.4375 3.46875 17.65625q0 10.296875 -3.4375 17.734375q-3.4375 7.4375 -9.890625 11.4375q-6.453125 4.0 -15.3125 4.0zm0 -14.8125q6.265625 0 9.734375 -4.828125q3.46875 -4.84375 3.46875 -13.53125q0 -8.671875 -3.5 -13.53125q-3.5 -4.875 -9.703125 -4.875q-6.265625 0 -9.796875 4.90625q-3.53125 4.890625 -3.53125 13.5625q0 8.5625 3.53125 13.4375q3.53125 4.859375 9.796875 4.859375zm70.99005 14.8125q-13.390625 0 -21.140625 -8.859375q-7.75 -8.875 -7.75 -24.25q0 -10.15625 3.53125 -17.625q3.53125 -7.484375 10.0 -11.546875q6.484375 -4.0625 15.359375 -4.0625q8.796875 0 15.25 4.03125q6.453125 4.03125 9.921875 11.484375q3.46875 7.4375 3.46875 17.65625q0 10.296875 -3.4375 17.734375q-3.4375 7.4375 -9.890625 11.4375q-6.453125 4.0 -15.3125 4.0zm0 -14.8125q6.265625 0 9.734375 -4.828125q3.46875 -4.84375 3.46875 -13.53125q0 -8.671875 -3.5 -13.53125q-3.5 -4.875 -9.703125 -4.875q-6.265625 0 -9.796875 4.90625q-3.53125 4.890625 -3.53125 13.5625q0 8.5625 3.53125 13.4375q3.53125 4.859375 9.796875 4.859375z" fill-rule="nonzero"/><path fill="#eee1c6" d="m400.5042 236.48656c0.32147217 43.46248 -31.598267 79.00847 -71.35443 79.46062c-39.756134 0.45217896 -72.34546 -34.360107 -72.85123 -77.820496l44.836273 -0.62353516c0.16775513 18.742401 12.47699 33.777496 27.51361 33.606476c15.036621 -0.17102051 27.123688 -15.483582 27.017029 -34.226685z" fill-rule="evenodd"/><path stroke="#000000" stroke-width="8.0" stroke-linejoin="round" stroke-linecap="butt" d="m400.5042 236.48656c0.32147217 43.46248 -31.598267 79.00847 -71.35443 79.46062c-39.756134 0.45217896 -72.34546 -34.360107 -72.85123 -77.820496l44.836273 -0.62353516c0.16775513 18.742401 12.47699 33.777496 27.51361 33.606476c15.036621 -0.17102051 27.123688 -15.483582 27.017029 -34.226685z" fill-rule="evenodd"/></g></svg>