<svg version="1.1" viewBox="0.0 0.0 556.1076115485564 188.75853018372703" fill="none" stroke="none" stroke-linecap="square" stroke-miterlimit="10" xmlns:xlink="http://www.w3.org/1999/xlink" xmlns="http://www.w3.org/2000/svg"><clipPath id="p.0"><path d="m0 0l556.1076 0l0 188.75853l-556.1076 0l0 -188.75853z" clip-rule="nonzero"/></clipPath><g clip-path="url(#p.0)"><path fill="#000000" fill-opacity="0.0" d="m0 0l556.1076 0l0 188.75853l-556.1076 0z" fill-rule="evenodd"/><path fill="#d04f2c" d="m23.97866 38.94399l0 0c0 -13.614599 11.036812 -24.651413 24.651413 -24.651413l469.40582 0c6.537964 0 12.8081665 2.5971947 17.431213 7.220232c4.623047 4.6230354 7.220215 10.893221 7.220215 17.431181l0 98.60269c0 13.6145935 -11.036804 24.651413 -24.651428 24.651413l-469.40582 0c-13.614601 0 -24.651413 -11.036819 -24.651413 -24.651413z" fill-rule="evenodd"/><path stroke="#000000" stroke-width="8.0" stroke-linejoin="round" stroke-linecap="butt" d="m23.97866 38.94399l0 0c0 -13.614599 11.036812 -24.651413 24.651413 -24.651413l469.40582 0c6.537964 0 12.8081665 2.5971947 17.431213 7.220232c4.623047 4.6230354 7.220215 10.893221 7.220215 17.431181l0 98.60269c0 13.6145935 -11.036804 24.651413 -24.651428 24.651413l-469.40582 0c-13.614601 0 -24.651413 -11.036819 -24.651413 -24.651413z" fill-rule="evenodd"/><path fill="#000000" fill-opacity="0.0" d="m31.199497 30.070158l504.25198 0l0 116.34645l-504.25198 0z" fill-rule="evenodd"/><path fill="#eee1c6" d="m107.96626 115.870155l0 -56.0l23.640625 0q7.078125 0 11.234375 2.578125q4.171875 2.578125 5.96875 6.609375q1.796875 4.015625 1.796875 8.375q0 3.03125 -1.0625 6.140625q-1.0625 3.09375 -3.328125 5.671875q-2.25 2.578125 -5.875 4.171875q-3.609375 1.578125 -8.734375 1.578125l-13.28125 0l0 20.875l-10.359375 0zm10.359375 -30.640625l13.765625 0q2.875 0 4.609375 -1.171875q1.75 -1.1875 2.5 -2.984375q0.765625 -1.796875 0.765625 -3.640625q0 -1.6875 -0.703125 -3.5q-0.703125 -1.828125 -2.421875 -3.0625q-1.71875 -1.234375 -4.75 -1.234375l-13.765625 0l0 15.59375zm80.3143 30.640625l0 -40.875l10.0 0l0 4.390625q1.125 -2.359375 3.515625 -3.859375q2.40625 -1.5 5.046875 -1.5q4.359375 0 7.359375 3.0l-1.390625 9.15625q-1.640625 -1.359375 -3.203125 -1.90625q-1.5625 -0.5625 -3.4375 -0.5625q-2.484375 0 -4.25 1.15625q-1.75 1.15625 -2.703125 3.359375q-0.9375 2.203125 -0.9375 5.28125l0 22.359375l-10.0 0zm89.804306 0.953125q-8.640625 0 -13.640625 -5.71875q-5.0 -5.71875 -5.0 -15.640625q0 -6.546875 2.28125 -11.359375q2.28125 -4.828125 6.453125 -7.453125q4.1875 -2.625 9.90625 -2.625q5.6875 0 9.84375 2.609375q4.15625 2.59375 6.390625 7.390625q2.25 4.796875 2.25 11.40625q0 6.640625 -2.21875 11.4375q-2.21875 4.796875 -6.390625 7.375q-4.15625 2.578125 -9.875 2.578125zm0 -9.546875q4.046875 0 6.28125 -3.125q2.234375 -3.125 2.234375 -8.71875q0 -5.609375 -2.265625 -8.734375q-2.25 -3.140625 -6.25 -3.140625q-4.03125 0 -6.3125 3.15625q-2.28125 3.15625 -2.28125 8.75q0 5.53125 2.28125 8.671875q2.28125 3.140625 6.3125 3.140625zm85.31995 9.546875q-8.640625 0 -13.640625 -5.71875q-5.0 -5.71875 -5.0 -15.640625q0 -6.546875 2.28125 -11.359375q2.28125 -4.828125 6.453125 -7.453125q4.1875 -2.625 9.90625 -2.625q5.6875 0 9.84375 2.609375q4.15625 2.59375 6.390625 7.390625q2.25 4.796875 2.25 11.40625q0 6.640625 -2.21875 11.4375q-2.21875 4.796875 -6.390625 7.375q-4.15625 2.578125 -9.875 2.578125zm0 -9.546875q4.046875 0 6.28125 -3.125q2.234375 -3.125 2.234375 -8.71875q0 -5.609375 -2.265625 -8.734375q-2.25 -3.140625 -6.25 -3.140625q-4.03125 0 -6.3125 3.15625q-2.28125 3.15625 -2.28125 8.75q0 5.53125 2.28125 8.671875q2.28125 3.140625 6.3125 3.140625zm71.08557 8.59375l0 -32.125l-5.765625 0l0 -8.75l5.765625 0l0 -6.328125q0 -4.796875 2.53125 -7.265625q2.546875 -2.484375 7.390625 -2.484375q2.71875 0 4.859375 0.5q2.140625 0.5 4.09375 1.5l0 8.15625q-1.640625 -0.6875 -3.125 -1.0625q-1.46875 -0.375 -2.71875 -0.375q-1.515625 0 -2.28125 0.734375q-0.75 0.734375 -0.75 2.265625l0 4.359375l8.875 0l0 8.75l-8.875 0l0 32.125l-10.0 0z" fill-rule="nonzero"/></g></svg>